<svg width="29" height="16" fill="none" xmlns="http://www.w3.org/2000/svg"><path d="M27.9 14.45a14.54 14.54 0 0 0-2.88-3.41l-.04-.03-.01-.01-.02-.02h-.01c-.62-.6-1.02-1-1.18-1.2-.3-.38-.37-.78-.2-1.18.1-.3.55-.94 1.3-1.91l.95-1.24c1.69-2.24 2.42-3.67 2.2-4.3l-.1-.14c-.05-.09-.2-.17-.45-.24a2.3 2.3 0 0 0-.93-.04l-4.2.03a.55.55 0 0 0-.3 0l-.19.05-.07.04-.06.04a.65.65 0 0 0-.16.16 1 1 0 0 0-.14.25 23.86 23.86 0 0 1-2.56 4.86 5.3 5.3 0 0 1-1.31 1.48c-.17.13-.3.18-.38.16a10.7 10.7 0 0 1-.25-.06.97.97 0 0 1-.33-.36 1.6 1.6 0 0 1-.17-.57 6.26 6.26 0 0 1-.04-1.29l.01-.61a36.17 36.17 0 0 1 .06-2.24l.02-.8c0-.28-.02-.5-.06-.66a2.27 2.27 0 0 0-.15-.47.79.79 0 0 0-.3-.35c-.13-.08-.3-.15-.49-.2A9.72 9.72 0 0 0 13.5 0c-1.8-.02-2.97.1-3.49.35-.2.11-.39.26-.55.44-.18.21-.2.33-.08.35.59.09 1 .3 1.24.63l.1.17a6.77 6.77 0 0 1 .34 1.74 11.36 11.36 0 0 1-.15 3 2.37 2.37 0 0 1-.37 1.02.25.25 0 0 1-.08.07 1.1 1.1 0 0 1-.39.07c-.14 0-.3-.07-.5-.2a3.5 3.5 0 0 1-.6-.56c-.21-.24-.45-.58-.71-1-.26-.43-.54-.94-.82-1.52l-.23-.43a36.41 36.41 0 0 1-1.27-2.7.96.96 0 0 0-.35-.46L5.5.92A1.55 1.55 0 0 0 4.93.7l-4 .03c-.4 0-.68.1-.83.28l-.06.09a.47.47 0 0 0-.04.23c0 .1.03.24.09.4a48.19 48.19 0 0 0 3.7 7.05 36.38 36.38 0 0 0 2.98 3.97l.37.35c.23.23.58.51 1.03.84.45.32.95.65 1.5.96a8.16 8.16 0 0 0 4.05 1.02h1.68c.34-.03.6-.14.78-.32l.06-.08a1.49 1.49 0 0 0 .16-.67c-.01-.42.02-.8.1-1.13.06-.34.15-.59.24-.76a1.87 1.87 0 0 1 .56-.64.96.96 0 0 1 .12-.05c.23-.08.5 0 .82.22.32.23.62.51.9.85.27.34.6.71 1 1.13.38.42.72.73 1.02.94l.29.17c.2.12.45.23.76.32.3.1.58.12.82.08l3.73-.06c.37 0 .66-.06.86-.19.2-.12.33-.25.37-.4.04-.14.04-.3 0-.5a1.83 1.83 0 0 0-.1-.38Z" fill="#F13C6E"/></svg>